<svg xmlns="http://www.w3.org/2000/svg" width="1536" height="156" viewBox="0 0 1536 156"><path d="M0,156V0S78.6859.9579,132.3782,15.1649c23.5156,6.251,169.625,17.9413,278.3232,24.4034C689.19,56.129,493.5825,71.928,768.0427,78,1042.5,84.072,1536,93.993,1536,93.993V156H0Z" fill="#97956f"/><path d="M.0832,0s16.8555,33.577,197.09,44.8938,88.0619,51.4212,327.663,62.51S780.8,156,780.8,156H0V0Z" fill="#5e5e2f"/><path d="M1536,31s-59.215,26.326-230.368,35.818c-259.6053,14.425-32.2752,32.018-386.9845,40.783C563.94,116.365,144.6778,121.702,121.6,156H1536Z" fill="#88727e"/><path d="M0,156H1536V66s-12.3328,20.096-110.5941,39.088c-94.2336,18.198-129.1776,9.391-276.7765,20.598-147.5968,11.208-133.0433,19.009-320.6038,16.966s-143.5669,3.617-229.7408,8.482C512.1922,155.984,0,155.984,0,155.984Z" fill="#553c52"/><path d="M0,155.984V59s59.9531,0,110.6944,16.04,216.8682,38.187,322.9581,38.949,180.8456-9.089,304.4531,11.066C861.7941,145.193,1107.2,156,1107.2,156H0Z" fill="#efc5ac"/><path d="M.4928,89S67.71,140.172,359.89,125.435,545.1477,156,733.8667,156H0Z" fill="#b8cbcf"/><path d="M1180.11,138.968V105.911s-6.9686,1.888-8.5628-8.529-5.5809-39.809-.7975-42.161,5.74,3.808,5.5648,10.192.7976,33.137,1.6583,34.097a2.42,2.42,0,0,0,2.1372.704V49.572s-1.1964-14.6881,7.1589-13.5041,1.9929,48.77,1.9929,48.77,2.7905,2.384,3.9868-2.592-1.5951-17.761,1.1953-19.889,5.3736,7.04,3.3806,18.673-9.5185,9.376-9.5185,9.376L1187.0619,139l-6.9676-.032Z" fill="#553c52"/></svg>