<svg xmlns="http://www.w3.org/2000/svg" width="2800" height="156" viewBox="0 0 2800 156"><path d="M0,156V0S143.4378.9579,241.3145,15.1649c42.8668,6.251,309.2122,17.9413,507.36,24.4034C1256.3367,56.129,899.76,71.928,1400.0778,78,1900.3911,84.072,2800,93.993,2800,93.993V156H0Z" fill="#97956f"/><path d="M.1517,0S30.8778,33.577,359.4306,44.8938,519.96,96.315,956.7328,107.404,1423.3333,156,1423.3333,156H0V0Z" fill="#5e5e2f"/><path d="M2800,31s-107.944,26.326-419.9416,35.818c-473.2389,14.425-58.8351,32.018-705.4406,40.783C1028.0161,116.365,263.7355,121.702,221.6667,156H2800Z" fill="#88727e"/><path d="M0,156H2800V66s-22.4817,20.096-201.6039,39.088c-171.78,18.198-235.48,9.391-504.5405,20.598-269.0567,11.208-242.5267,19.009-584.434,16.966s-261.71,3.617-418.7983,8.482C933.6837,155.984,0,155.984,0,155.984Z" fill="#553c52"/><path d="M0,155.984V59s109.2894,0,201.7867,16.04c92.5,16.04,395.3326,38.187,588.7256,38.949s329.6666-9.089,554.9927,11.066C1570.9789,145.193,2018.3333,156,2018.3333,156H0Z" fill="#efc5ac"/><path d="M.8983,89S123.4294,140.172,656.05,125.435,993.7589,156,1337.7778,156H0Z" fill="#b8cbcf"/><path d="M2130.61,138.968V105.911s-6.9686,1.888-8.5628-8.529-5.5809-39.809-.7975-42.161,5.74,3.808,5.5648,10.192.7976,33.137,1.6583,34.097a2.42,2.42,0,0,0,2.1372.704V49.572s-1.1964-14.6881,7.1589-13.5041,1.9929,48.77,1.9929,48.77,2.7905,2.384,3.9868-2.592-1.5951-17.761,1.1953-19.889,5.3736,7.04,3.3806,18.673-9.5185,9.376-9.5185,9.376L2137.5619,139l-6.9676-.032Z" fill="#553c52"/></svg>