<svg xmlns="http://www.w3.org/2000/svg" xmlns:xlink="http://www.w3.org/1999/xlink" width="640" height="156" viewBox="0 0 640 156"><defs><clipPath id="a"><rect width="640" height="156" fill="none"/></clipPath></defs><g clip-path="url(#a)"><path d="M0,156.3124v-156S36.884,1.27,62.0523,15.4773c11.0229,6.251,79.5117,17.9413,130.464,24.4034C323.058,56.4414,231.3668,72.24,360.02,78.3124S720,94.3054,720,94.3054v62.007H0Z" fill="#97956f"/><path d="M.039.3124S7.94,33.8894,92.425,45.2062s41.279,51.4212,153.592,62.51S366,156.3124,366,156.3124H0v-156Z" fill="#5e5e2f"/><path d="M720,31.3124S692.243,57.6384,612.015,67.13c-121.69,14.425-15.129,32.018-181.399,40.783S67.8177,122.0144,57,156.3124H720Z" fill="#88727e"/><path d="M0,156.3124H720v-90s-5.781,20.096-51.841,39.088c-44.172,18.198-60.552,9.391-129.739,20.598s-62.364,19.0091-150.283,16.966-67.297,3.617-107.691,8.482C240.09,156.2964,0,156.2964,0,156.2964Z" fill="#553c52"/><path d="M0,156.2964V59.3124s28.103,0,51.888,16.04,101.657,38.187,151.3866,38.949,84.7714-9.089,142.7124,11.066C403.966,145.5054,519,156.3124,519,156.3124H0Z" fill="#efc5ac"/><path d="M.231,89.3124s31.508,51.172,168.4675,36.435,86.84,30.565,175.3015,30.565H0Z" fill="#b8cbcf"/><path d="M498.616,139.28v-33.057s-6.955,1.888-8.546-8.529-5.57-39.809-.796-42.161,5.729,3.808,5.554,10.192.796,33.137,1.655,34.097a2.4116,2.4116,0,0,0,2.133.704V49.8844s-1.194-14.6881,7.145-13.5041,1.989,48.77,1.989,48.77,2.785,2.384,3.979-2.592-1.592-17.761,1.193-19.889,5.363,7.04,3.374,18.673-9.5,9.376-9.5,9.376l-1.242,48.594-6.954-.032Z" fill="#553c52"/></g></svg>