<svg xmlns="http://www.w3.org/2000/svg" xmlns:xlink="http://www.w3.org/1999/xlink" width="2800" height="84" viewBox="0 0 2800 84"><defs><clipPath id="a"><rect width="2800" height="84" fill="none"/></clipPath></defs><g clip-path="url(#a)"><path d="M199,56.59l-199-5V-.7065H2800V66.85l-151.4723-3.78-113.7425-5.4732-141.182,11.8007-597.4594-2.38L1363.6144,63.01,977,59.59l-62,10L648.0469,61.9524l-159.7824,3.955Z" fill="#89717e"/><path d="M1361.4533,43.6793a52.3077,52.3077,0,0,1-15.2407-4.9c23.5237-2.411,18.6036,2.8747,68.7012-2.7677,64.2912-7.24,73.4029,7.2354,110.8015,18.4881C1552.5972,62.588,1631.8983,43.2831,1676,43.97c16.8446.2623,37.1283,15.6367,85,19,63.4432,4.4573,163.7888-19.6848,234-18,49.9332,1.1981,98.7489,18.691,130,21,31.8879,2.356,45.7051-7.4834,45.7051-7.4834l32,19.1917S1564.719,67.0642,1455.4628,73.211s-93.86,4.8869-149.3519-3.0929-40.4354-1.0991-125.6892-1.3729c0,0,16.6155-11.5681,107.0273-9.8987C1380.2917,57.8391,1407.8814,52.5433,1361.4533,43.6793Z" fill="#98976d"/><path d="M2786.5045,74.3666c-22.6261,4.0149-165.8027-13.3033-187.4236-7.9773h-.005c-29.991,2.1812-49.16-11.1363-81.4715-4.6929C2465.5093,72.0855,2410.3118,83.92,2326.489,74.11S2247,82.59,2184.6337,77.083c0,0-21.63-7.6029-105.5926-8.6277-93.1718-1.1382-122.7257-8.5442-76.163-17.7837a50.7618,50.7618,0,0,0,15.2781-5.1173c9.7969,1.1784,19.4323,2.7014,28.84,4.5585,59.6881,11.1655,70.5816,19.917,104.0712,11.576a306.2219,306.2219,0,0,1,49.8015-8.87h.01c10.331-.9511,21.6224-1.5256,36.3455-2.2239a59.2145,59.2145,0,0,0,9.577-1.1562,486.6347,486.6347,0,0,1,91.482,6.7113c76.0362,13.0558,85.1051-.7882,144.8887-10.0331,30.0105-4.6411,36.5686,5.8254,54.9238-.2956a101.139,101.139,0,0,1,20.4323-4.3339h.0051c6.2734-.71,12.657-1.1192,19.0716-1.2224,40.9537-1.0556,202.2659,16.2363,240.206,8.0775C2817.9373,48.5388,2829.1793,66.538,2786.5045,74.3666Z" fill="#5e5f2c"/><path d="M-14,41.59c-5.7414-.9847-46.72-3.7633-51-6,23.5237-2.411,118.17,13.6961,168.2672,8.0537,64.2912-7.24,73.4029-2.7646,110.8015,8.4881,26.8819,8.0883,106.1831-11.2166,150.2847-10.53,16.8446.2624,37.1284,15.6367,85,19,63.4433,4.4573,163.6466-19.0122,234-18,49.9333,1.1981,98.7489,18.691,130,21,31.8879,2.356,45.7051-7.4834,45.7051-7.4834l32,19.1917S670.8354,76.6326,467,73.59c-42.1741-.6295-83.2857-9.854-122-10-90.2162-.34-169.996,5.4985-201.1837,7.2531C34.56,76.99,49.9563,75.73-5.5357,67.75c-55.4935-7.98-40.4353-1.099-125.6891-1.3728,0,0,16.6154-11.5682,107.0272-9.8988C-10,46.59-113.8067,43.8685-14,41.59Z" fill="#98976d"/><path d="M597,48.59c36-4,150.0706-17.7206,191.0243-16.6651,6.4146.1032,12.7982.5123,19.0716,1.2224h.0051a101.139,101.139,0,0,1,20.4323,4.3339c18.3552,6.121,24.9133,15.6545,54.9238,20.2956,59.7836,9.2449,68.8525,3.0889,144.8887-9.9668a486.6263,486.6263,0,0,1,91.482-6.7114,59.2132,59.2132,0,0,0,9.577,1.1562c14.7231.6983,26.0145,1.2728,36.3454,2.2239h.0105a306.2326,306.2326,0,0,1,49.8015,8.87c33.49,8.341,44.3831-.41,104.0712-11.576,9.408-1.8571,19.0434-3.38,28.84-4.5585a50.7618,50.7618,0,0,0,15.2781,5.1173c46.5627,9.24,17.0088,16.6455-76.163,17.7837-83.9628,1.0248-105.5926,8.6277-105.5926,8.6277-93.8854.9189-58.0321-12.7833-141.8553-2.9731s-139.02,17.9756-191.1154,7.5865C815.7136,66.9124,796.545,60.23,766.554,58.0487h-.0051C744.9281,52.7227,654.6261,62.6049,632,58.59,589.3252,50.7613,595,48.59,597,48.59Z" fill="#5e5f2c"/></g></svg>