<svg xmlns="http://www.w3.org/2000/svg" xmlns:xlink="http://www.w3.org/1999/xlink" width="1536" height="84" viewBox="0 0 1536 84"><defs><clipPath id="a"><rect width="1536" height="84" fill="none"/></clipPath></defs><g clip-path="url(#a)"><path d="M94.5,43.9524l-94.5-12V-.7065H1536V66.85l-83.0934-3.78L985.3132,67.0175,748.04,63.01,533.985,54.1061,355.5,61.9524l-87.652,3.955Z" fill="#89717e"/><path d="M728.4533,43.6793a52.3077,52.3077,0,0,1-15.2407-4.9c23.5237-2.411,18.6036,2.8747,68.7012-2.7677,64.2912-7.24,73.4029,7.2354,110.8015,18.4881C919.5972,62.588,998.8983,43.2831,1043,43.97c16.8446.2623,37.1283,15.6367,85,19,63.4432,4.4573,163.7888-19.6848,234-18,49.9332,1.1981,98.7489,17.691,130,20,31.8879,2.356,45.7051-9.4834,45.7051-9.4834V77.6784S931.719,67.0642,822.4628,73.211s-93.86,4.8869-149.3519-3.0929c-55.4935-7.98-40.4354-1.0991-125.6892-1.3729,0,0,16.6155-11.5681,107.0273-9.8987C747.2917,57.8391,774.8814,52.5433,728.4533,43.6793Z" fill="#98976d"/><path d="M-24.1817,18.0023c37.94,8.1588,138.2523,12.867,179.206,13.9225,6.4146.1032,12.7982.5123,19.0716,1.2224h.0051a101.139,101.139,0,0,1,20.4323,4.3339c18.3552,6.121,24.9133,15.6545,54.9238,20.2956,59.7836,9.2449,68.8525,3.0889,144.8887-9.9668a486.6263,486.6263,0,0,1,91.482-6.7114,59.2132,59.2132,0,0,0,9.577,1.1562c14.7231.6983,26.0145,1.2728,36.3454,2.2239h.0105a306.2326,306.2326,0,0,1,49.8015,8.87c33.49,8.341,44.3831-.41,104.0712-11.576,9.408-1.8571,19.0434-3.38,28.84-4.5585a50.7618,50.7618,0,0,0,15.2781,5.1173c46.5627,9.24,17.0088,16.6455-76.163,17.7837C569.626,61.14,547.9962,68.7424,547.9962,68.7424c-93.8854.9189-58.0321-12.7833-141.8553-2.9731s-139.02,17.9756-191.1154,7.5865C182.7136,66.9124,163.545,60.23,133.554,58.0487h-.0051C111.9281,52.7227,29.7515,48.0409,7.1253,44.026-35.5494,36.1974-24.3074,18.1982-24.1817,18.0023Z" fill="#5e5f2c"/></g></svg>