<svg xmlns="http://www.w3.org/2000/svg" xmlns:xlink="http://www.w3.org/1999/xlink" width="1024" height="84" viewBox="0 0 1024 84"><defs><clipPath id="a"><rect width="1024" height="84" fill="none"/></clipPath></defs><g clip-path="url(#a)"><path d="M63,43.9524l-63-12V-.7065H1024V66.85l-55.3956-5.78L656.8755,57.0175,498.6933,63.01,355.99,53.1061,237,71.9524Z" fill="#89717e"/><path d="M681.4533,43.6793a52.3077,52.3077,0,0,1-15.2407-4.9c23.5237-2.411,18.6036,2.8747,68.7012-2.7677,64.2912-7.24,73.4029,7.2354,110.8015,18.4881s181.6592.987,181.6592.987l-1.6694,22.1917S884.719,67.0642,775.4628,73.211s-93.86,4.8869-149.3519-3.0929c-55.4935-7.98-40.4354-1.0991-125.6892-1.3729,0,0,16.6155-11.5681,107.0273-9.8987C700.2917,57.8391,727.8814,52.5433,681.4533,43.6793Z" fill="#98976d"/><path d="M-11.1817,18.0023a649.6619,649.6619,0,0,0,119.206,13.9225c6.4146.1032,12.7982.5123,19.0716,1.2224h.0051a101.139,101.139,0,0,1,20.4323,4.3339c18.3552,6.121,24.9133,15.6545,54.9238,20.2956,59.7836,9.2449,68.8525,3.0889,144.8887-9.9668a486.6263,486.6263,0,0,1,91.482-6.7114,59.2132,59.2132,0,0,0,9.577,1.1562c14.7231.6983,26.0145,1.2728,36.3454,2.2239h.01a306.2326,306.2326,0,0,1,49.8015,8.87c33.49,8.341,44.3831-.41,104.0712-11.576,9.408-1.8571,19.0434-3.38,28.84-4.5585a50.7618,50.7618,0,0,0,15.2781,5.1173c46.5627,9.24,17.0088,16.6455-76.163,17.7837C522.626,61.14,500.9962,68.7424,500.9962,68.7424c-93.8854.9189-58.0321-12.7833-141.8553-2.9731s-139.02,17.9756-191.1154,7.5865C135.7136,66.9124,116.545,60.23,86.554,58.0487h-.0051Q54.1177,50.06,20.1253,44.026C-22.5494,36.1974-11.3074,18.1982-11.1817,18.0023Z" fill="#5e5f2c"/></g></svg>