<?xml version="1.0" encoding="UTF-8"?><svg id="a" xmlns="http://www.w3.org/2000/svg" viewBox="0 0 1224 1224"><defs><style>.b{fill:#f8f2e6;}.c{fill:#89727f;}</style></defs><circle class="b" cx="612" cy="612" r="595.01"/><path class="c" d="M855.57,748.71V205.52h-101.45V748.71h-.8c.08,3.71,.17,7.42,.17,11.2,0,155.14-90.67,219.6-182.76,219.6-109.09,0-191.27-94.21-191.27-262.1,0-99.75,37.57-161.83,89-193.58l-28-38.96c-94.97,41.68-163.72,131.42-163.72,253.79,0,172.14,136.01,279.82,289.74,279.82s278.91-99.52,288.93-260.05h.16v-2.81c.12-2.31,.31-4.58,.39-6.91h-.39Z"/></svg>